<svg width="39" height="39" viewBox="0 0 39 39" fill="none" xmlns="http://www.w3.org/2000/svg">
<path d="M19.5 26C19.9604 26 20.3466 25.844 20.6586 25.532C20.9695 25.2211 21.125 24.8354 21.125 24.375V19.175L22.5875 20.6375C22.8854 20.9354 23.2646 21.0844 23.725 21.0844C24.1854 21.0844 24.5646 20.9354 24.8625 20.6375C25.1604 20.3396 25.3094 19.9604 25.3094 19.5C25.3094 19.0396 25.1604 18.6604 24.8625 18.3625L20.6375 14.1375C20.475 13.975 20.299 13.8596 20.1094 13.7914C19.9198 13.7242 19.7167 13.6906 19.5 13.6906C19.2833 13.6906 19.0802 13.7242 18.8906 13.7914C18.701 13.8596 18.525 13.975 18.3625 14.1375L14.1375 18.3625C13.8396 18.6604 13.6906 19.0396 13.6906 19.5C13.6906 19.9604 13.8396 20.3396 14.1375 20.6375C14.4354 20.9354 14.8146 21.0844 15.275 21.0844C15.7354 21.0844 16.1146 20.9354 16.4125 20.6375L17.875 19.175V24.375C17.875 24.8354 18.031 25.2211 18.343 25.532C18.6539 25.844 19.0396 26 19.5 26ZM19.5 35.75C17.2521 35.75 15.1396 35.3232 13.1625 34.4695C11.1854 33.6169 9.46563 32.4594 8.00313 30.9969C6.54063 29.5344 5.38308 27.8146 4.5305 25.8375C3.67683 23.8604 3.25 21.7479 3.25 19.5C3.25 17.2521 3.67683 15.1396 4.5305 13.1625C5.38308 11.1854 6.54063 9.46563 8.00313 8.00313C9.46563 6.54063 11.1854 5.38254 13.1625 4.52887C15.1396 3.67629 17.2521 3.25 19.5 3.25C21.7479 3.25 23.8604 3.67629 25.8375 4.52887C27.8146 5.38254 29.5344 6.54063 30.9969 8.00313C32.4594 9.46563 33.6169 11.1854 34.4695 13.1625C35.3232 15.1396 35.75 17.2521 35.75 19.5C35.75 21.7479 35.3232 23.8604 34.4695 25.8375C33.6169 27.8146 32.4594 29.5344 30.9969 30.9969C29.5344 32.4594 27.8146 33.6169 25.8375 34.4695C23.8604 35.3232 21.7479 35.75 19.5 35.75Z" fill="white"/>
</svg>
